<?xml version="1.0" encoding="UTF-8" standalone="no"?>
<!-- Created with Inkscape (http://www.inkscape.org/) -->

<svg
   xmlns:dc="http://purl.org/dc/elements/1.1/"
   xmlns:cc="http://creativecommons.org/ns#"
   xmlns:rdf="http://www.w3.org/1999/02/22-rdf-syntax-ns#"
   xmlns:svg="http://www.w3.org/2000/svg"
   xmlns="http://www.w3.org/2000/svg"
   xmlns:sodipodi="http://sodipodi.sourceforge.net/DTD/sodipodi-0.dtd"
   xmlns:inkscape="http://www.inkscape.org/namespaces/inkscape"
   width="141.60538mm"
   height="141.72968mm"
   viewBox="0 0 141.60538 141.72968"
   version="1.1"
   id="svg3768"
   inkscape:version="0.92.3 (2405546, 2018-03-11)"
   sodipodi:docname="drawing.svg">
  <defs
     id="defs3762">
    <clipPath
       id="clipPath3788"
       clipPathUnits="userSpaceOnUse">
      <path
         inkscape:connector-curvature="0"
         id="path3786"
         d="M 0,841.89 H 595.28 V 0 H 0 Z" />
    </clipPath>
    <clipPath
       id="clipPath3832"
       clipPathUnits="userSpaceOnUse">
      <path
         inkscape:connector-curvature="0"
         id="path3830"
         d="M 0,841.89 H 595.28 V 0 H 0 Z" />
    </clipPath>
    <clipPath
       id="clipPath3880"
       clipPathUnits="userSpaceOnUse">
      <path
         inkscape:connector-curvature="0"
         id="path3878"
         d="M 0,841.89 H 595.28 V 0 H 0 Z" />
    </clipPath>
    <clipPath
       id="clipPath3928"
       clipPathUnits="userSpaceOnUse">
      <path
         inkscape:connector-curvature="0"
         id="path3926"
         d="M 0,841.89 H 595.28 V 0 H 0 Z" />
    </clipPath>
    <clipPath
       id="clipPath3976"
       clipPathUnits="userSpaceOnUse">
      <path
         inkscape:connector-curvature="0"
         id="path3974"
         d="M 0,841.89 H 595.28 V 0 H 0 Z" />
    </clipPath>
  </defs>
  <sodipodi:namedview
     id="base"
     pagecolor="#ffffff"
     bordercolor="#666666"
     borderopacity="1.0"
     inkscape:pageopacity="0"
     inkscape:pageshadow="2"
     inkscape:zoom="0.7"
     inkscape:cx="17.239623"
     inkscape:cy="1.8654337"
     inkscape:document-units="mm"
     inkscape:current-layer="layer1"
     showgrid="false"
     fit-margin-top="0"
     fit-margin-left="0"
     fit-margin-right="0"
     fit-margin-bottom="0"
     inkscape:pagecheckerboard="true"
     inkscape:window-width="1920"
     inkscape:window-height="1136"
     inkscape:window-x="0"
     inkscape:window-y="27"
     inkscape:window-maximized="1" />
  <metadata
     id="metadata3765">
    <rdf:RDF>
      <cc:Work
         rdf:about="">
        <dc:format>image/svg+xml</dc:format>
        <dc:type
           rdf:resource="http://purl.org/dc/dcmitype/StillImage" />
        <dc:title></dc:title>
      </cc:Work>
    </rdf:RDF>
  </metadata>
  <g
     inkscape:label="Layer 1"
     inkscape:groupmode="layer"
     id="layer1"
     transform="translate(-29.485972,-33.100846)">
    <g
       id="g3934"
       transform="matrix(0.54605023,0,0,-0.54605023,44.194927,159.38602)">
      <path
         d="M 0,0 C 0.021,-0.158 0.043,-0.314 0.062,-0.471 0.766,-0.375 1.467,-0.277 2.17,-0.182 2.146,-0.037 2.121,0.109 2.098,0.256 1.398,0.17 0.699,0.084 0,0 m 184.528,9.344 c -0.056,-0.141 -0.115,-0.28 -0.172,-0.42 0.401,-0.203 0.799,-0.414 1.215,-0.58 0.018,-0.008 0.196,0.381 0.301,0.584 -0.449,0.138 -0.896,0.277 -1.344,0.416 m -7.433,8.816 c -0.701,-0.252 -0.758,-1.113 0,-2.521 z M 174.938,8.016 c -0.13,0.007 -0.263,0.015 -0.394,0.023 -0.068,-0.648 -0.158,-1.295 -0.186,-1.945 -0.005,-0.147 0.205,-0.301 0.315,-0.451 0.119,0.148 0.338,0.294 0.342,0.443 0.007,0.643 -0.045,1.285 -0.077,1.93 M 74.613,172.85 c -0.002,0.074 -0.006,0.149 -0.009,0.224 -1.952,-0.099 -3.903,-0.197 -5.854,-0.296 0.002,-0.066 0.006,-0.132 0.008,-0.198 -2.279,-0.105 0.521,0.024 5.855,0.27 M 6.762,-3.979 c 0.099,0.793 0.197,1.584 0.304,2.432 C 6.229,-1.754 6.082,-2.684 6.762,-3.979 M 8.805,2.385 C 8.814,2.24 8.824,2.098 8.834,1.953 c 1.404,0.119 2.809,0.24 4.215,0.361 -0.004,0.024 -0.006,0.047 -0.01,0.071 z m -1.44,178.261 c -1.154,-0.262 -2.205,-0.502 -3.256,-0.742 2.93,-0.404 3.241,-0.334 3.256,0.742 m 8.998,6.474 c -0.213,-1.162 -0.424,-2.323 -0.636,-3.485 0.158,-0.031 0.318,-0.061 0.478,-0.092 0.715,1.066 0.289,2.35 0.158,3.577 m 152.169,7.017 c -0.113,0.023 -0.228,0.048 -0.342,0.072 -0.304,-1.207 -0.607,-2.414 -0.912,-3.621 0.19,-0.045 0.377,-0.09 0.567,-0.135 0.884,1.072 0.174,2.524 0.687,3.684 M 174.558,4.602 c -0.094,-0.071 -0.188,-0.143 -0.282,-0.215 0,-0.699 -0.029,-1.403 0.02,-2.1 0.012,-0.174 0.273,-0.33 0.42,-0.494 0.156,0.158 0.431,0.305 0.443,0.473 0.049,0.588 0.055,1.191 -0.031,1.773 -0.031,0.211 -0.371,0.377 -0.57,0.563 M 14.07,179.979 c -0.134,0.298 -0.174,0.474 -0.218,0.476 -0.924,0.039 -1.848,0.069 -2.772,0.063 -0.111,-0.001 -0.225,-0.229 -0.336,-0.352 0.182,-0.127 0.367,-0.365 0.545,-0.361 0.883,0.019 1.766,0.103 2.781,0.174 m 161.661,8.009 v -1.56 c 0.627,0.138 1.159,0.256 1.666,0.367 v 1.193 z m 1.618,-2.679 c -1.918,0.085 -1.946,0.062 -1.75,-1.309 h 1.75 z M -0.002,-1.779 c -0.113,-1.588 -0.014,-1.672 1.76,-1.58 0.045,0.517 0.092,1.041 0.138,1.58 z m 15.705,178.492 c -0.076,0.08 -0.154,0.16 -0.23,0.24 -0.211,-0.123 -0.59,-0.226 -0.606,-0.371 -0.144,-1.303 -0.224,-2.611 -0.322,-3.918 0.125,-0.018 0.25,-0.035 0.375,-0.055 0.699,1.268 0.416,2.76 0.783,4.104 M 3.098,11.385 v 1.293 c -1.041,0.06 -2.026,0.117 -3.01,0.176 l -0.217,-0.282 c 0.225,-0.273 0.402,-0.718 0.68,-0.791 m 177.845,175.156 c 1.052,0.152 2.013,0.264 2.962,0.45 0.207,0.039 0.366,0.337 0.545,0.515 -0.193,0.121 -0.382,0.336 -0.582,0.344 -0.957,0.036 -1.916,0.017 -2.925,0.017 z M 6.361,10.844 c 0.7,-0.104 1.272,-0.19 1.957,-0.291 0.073,0.631 0.137,1.189 0.213,1.857 h -2.17 z m 168.855,169.372 h 1.971 v 1.913 h -1.795 c -0.061,-0.674 -0.116,-1.262 -0.176,-1.913 M 164.665,2.848 v 1.127 c -2.166,-0.129 -4.254,-0.252 -6.344,-0.377 0,-0.049 0.002,-0.098 0.002,-0.149 2.09,-0.197 4.182,-0.396 6.342,-0.601 m 10.369,173.962 h 1.987 c 0.037,0.723 0.074,1.403 0.109,2.087 h -1.91 c -0.063,-0.705 -0.117,-1.327 -0.186,-2.087 m -4.654,7.004 c 1.053,0 2.008,0.043 2.959,-0.011 1.025,-0.059 1.187,0.41 0.963,1.244 -1.885,0.16 -3.647,-0.367 -3.922,-1.233 M -0.586,179.697 c 0.313,0.989 -0.105,1.11 -0.726,1.124 -2.905,0.068 -5.809,0.163 -8.713,0.235 -0.93,0.022 -1.86,0.003 -2.789,0.003 -0.004,-0.092 -0.006,-0.186 -0.01,-0.28 2.031,-0.145 4.062,-0.306 6.094,-0.431 2.044,-0.127 4.181,0.947 6.144,-0.651 M -3.91,12.539 c 0.051,0.217 0.101,0.436 0.154,0.652 -3.521,0.631 -7.084,0.948 -10.699,0.862 3.516,-0.506 7.029,-1.008 10.545,-1.514 m 182.286,171.488 h 3.564 v 1.768 c -1.236,-0.115 -2.39,-0.225 -3.564,-0.334 z m -3.865,3.866 c -1.387,-0.117 -2.686,-0.226 -3.942,-0.332 v -1.774 c 1.358,0.18 2.627,0.348 3.942,0.521 z m 3.869,-7.684 h 3.324 c 0.078,0.711 0.154,1.389 0.225,2.018 h -3.549 z m -4.488,-3.365 c 0.058,0.679 0.111,1.296 0.164,1.918 h -3.787 v -1.918 z m 4.23,-0.162 h 3.219 c 0.07,0.738 0.138,1.461 0.215,2.269 h -3.28 c -0.05,-0.734 -0.095,-1.42 -0.154,-2.269 m -7.871,5.332 c -0.037,-0.743 -0.064,-1.356 -0.1,-2.094 1.401,0.07 2.672,0.134 3.953,0.197 0.055,0.782 0.1,1.4 0.149,2.09 -1.35,-0.065 -2.609,-0.126 -4.002,-0.193 M 8.215,9.27 C 7.58,9.352 7.018,9.426 6.383,9.506 V 4.014 C 6.854,4.037 7.238,4.055 7.689,4.076 7.867,5.832 8.033,7.48 8.215,9.27 m 5.117,162.136 c -1.195,0.075 -2.393,0.151 -3.629,0.229 -0.109,-0.749 -0.211,-1.401 -0.295,-2.055 -0.017,-0.141 0.022,-0.289 0.049,-0.562 0.596,0 1.18,-0.026 1.762,0.005 2.26,0.121 2.039,-0.476 2.113,2.383 M 171.823,2.037 c 0.127,0.731 0.254,1.451 0.41,2.35 -1.875,-0.096 -3.55,-0.182 -5.168,-0.266 -0.378,-1.264 0.002,-1.685 1.172,-1.689 1.143,-0.004 2.284,-0.241 3.586,-0.395 M 2.246,168.895 c 1.219,0.09 2.295,0.14 3.359,0.273 0.231,0.03 0.577,0.348 0.602,0.564 0.082,0.651 0.029,1.317 0.029,2.127 H 1.973 c 0.084,-0.923 0.173,-1.878 0.273,-2.964 M 178.253,5.791 c 3.586,0.143 7.06,0.281 10.535,0.42 -0.449,0.328 -0.891,0.469 -1.324,0.443 -0.451,-0.025 -0.889,-0.254 -1.342,-0.31 -0.275,-0.033 -0.619,0.013 -0.844,0.158 -2.172,1.396 -4.638,0.85 -7.025,1.31 z m -11.248,11.697 v -1.904 c 1.564,0 3.08,-0.059 4.59,0.016 1.937,0.095 1.937,0.142 1.83,2.146 -0.004,0.059 -0.08,0.115 -0.168,0.233 -2.029,-0.161 -4.096,-0.321 -6.252,-0.491 M 166.979,5.406 c 1.096,0 2.065,-0.025 3.032,0.004 2.402,0.072 2.402,0.082 2.633,2.453 0.003,0.053 -0.071,0.116 -0.204,0.323 -1.753,-0.139 -3.589,-0.284 -5.461,-0.43 z M -4.469,-3.863 c -0.095,0.119 -0.158,0.263 -0.267,0.322 -1.571,0.859 -3.145,1.602 -5.051,1.287 -1.008,-0.168 -2.063,-0.035 -3.098,-0.037 -0.904,-0.002 -1.81,0 -2.898,0 1.521,-1.445 9.328,-2.445 11.314,-1.572 M 10.41,177.393 c -0.189,-1.504 -0.367,-2.92 -0.558,-4.458 1.224,-0.074 2.355,-0.14 3.584,-0.214 0.107,1.515 0.203,2.901 0.302,4.361 -1.181,0.11 -2.205,0.206 -3.328,0.311 M 173.13,13.033 c -2.102,-0.095 -4.092,-0.187 -6.139,-0.283 v -2.588 h 5.93 c 0.07,0.971 0.133,1.822 0.209,2.871 M 13.564,133.57 c 0.647,10.176 1.295,20.352 1.944,30.528 C 13.41,154.023 13.695,143.804 13.564,133.57 M 140.837,3.619 c 0.004,0.088 0.008,0.178 0.014,0.266 -2.372,0.117 -4.754,0.447 -7.11,0.306 -4.568,-0.275 -9.121,-0.804 -13.678,-1.246 -2.367,-0.228 -4.73,-0.494 -7.095,-0.744 l 0.017,-0.199 c 9.286,0.539 18.569,1.078 27.852,1.617 M 11.631,97.533 H 11.254 C 10.125,83.62 8.996,69.708 7.865,55.794 8.027,55.781 8.189,55.77 8.352,55.756 9.445,69.682 10.539,83.607 11.631,97.533 M 178.282,16.098 h 6.987 c -0.084,0.994 -0.151,1.793 -0.225,2.675 -1.637,-0.111 -3.186,-0.222 -4.734,-0.32 -2.186,-0.139 -2.186,-0.135 -2.028,-2.355 M 0.086,10.348 C -0.273,7.666 -0.074,5.857 0.775,3.924 H 2.639 C 2.766,5.039 2.904,6.068 3,7.102 3.334,10.666 4.023,9.867 0.086,10.348 m 18.041,158.867 c 6.205,0.463 12.185,0.911 18.166,1.357 -0.002,0.055 -0.004,0.109 -0.004,0.162 -5.975,0.143 -11.947,0.284 -18.008,0.428 -0.052,-0.652 -0.097,-1.226 -0.154,-1.947 m 160.102,-159 c 2.581,0.135 5.016,0.264 7.581,0.396 -0.139,1.102 -0.258,2.039 -0.381,3.018 -2.471,-0.143 -4.826,-0.279 -7.2,-0.416 z M 1.861,173.443 c 1.586,-0.099 3.082,-0.195 4.659,-0.295 0.093,1.623 0.175,3.08 0.261,4.588 -1.861,0.145 -3.511,0.274 -5.299,0.412 0.131,-1.617 0.25,-3.115 0.379,-4.705 M 156.661,7.922 c -0.008,0.109 -0.014,0.219 -0.021,0.328 -10.821,-0.564 -21.641,-1.129 -32.461,-1.691 2.232,-0.414 4.459,-0.614 6.689,-0.735 1.748,-0.094 3.502,-0.179 5.248,-0.101 1.781,0.078 3.555,0.361 5.334,0.554 5.071,0.547 10.141,1.096 15.211,1.645 m 9.168,10.926 c -0.428,27.164 -0.857,54.328 -1.285,81.492 -0.344,-27.184 0.062,-54.356 1.285,-81.492 M 164.671,7.518 C 157.241,6.719 149.925,5.93 142.61,5.143 149.997,3.666 157.329,4.889 164.671,5.154 Z M 55.729,182.764 c -0.006,0.177 -0.012,0.357 -0.016,0.536 -9.805,0 -19.609,0.024 -29.412,-0.021 -2.008,-0.008 -4.014,-0.266 -6.02,-0.433 -1.015,-0.084 -1.052,-0.155 -0.812,-1.311 12.058,0.408 24.158,0.819 36.26,1.229 M 12.238,135.159 C 11.643,130.424 7.635,78.444 8.148,75.24 c 1.17,6.216 4.54,55.004 4.09,59.919 m 117.245,41.056 c 0.004,-0.089 0.01,-0.179 0.014,-0.269 12.5,0.314 25,0.626 37.582,0.942 -0.039,0.568 -0.078,1.144 -0.139,2.01 -12.568,-0.9 -25.011,-1.791 -37.457,-2.683 M 176.487,67.968 c -0.086,0.011 -0.174,0.021 -0.259,0.033 -0.022,-0.317 -0.057,-0.635 -0.063,-0.953 -0.041,-2.312 -0.1,-4.623 -0.107,-6.936 -0.032,-10.731 -1.028,-21.454 -0.196,-32.19 0.198,-2.527 0.315,-5.061 0.512,-7.588 0.025,-0.314 0.318,-0.609 0.488,-0.914 0.162,0.057 0.326,0.111 0.491,0.168 -0.29,16.127 -0.579,32.253 -0.866,48.38 M 47.24,4.672 C 47.23,4.549 47.221,4.424 47.209,4.301 63.783,4.949 80.359,5.6 96.936,6.248 96.465,6.514 95.992,6.582 95.518,6.605 91.346,6.811 87.174,7.088 82.998,7.184 79.801,7.258 76.592,7.219 73.4,7.016 69.014,6.736 64.637,6.256 60.256,5.859 55.918,5.467 51.58,5.068 47.24,4.672 M 46.652,9.121 C 34.404,10.24 22.156,11.359 9.77,12.49 9.709,11.652 9.664,11.018 9.621,10.412 22.018,8.768 34.307,8.582 46.652,9.121 M 69.924,-1.676 C 69.914,-1.625 69.9,-1.572 69.889,-1.521 51.445,-2.646 33,-3.773 14.557,-4.898 c 1.904,-0.311 3.802,-0.539 5.699,-0.515 6.787,0.084 13.582,0.082 20.355,0.448 5.164,0.279 10.305,1.047 15.453,1.631 4.624,0.527 9.241,1.104 13.86,1.658 M 8.496,0.332 C 8.566,0.166 8.637,0 8.705,-0.164 26.408,0.09 43.973,2.428 61.461,3.42 59.762,3.42 57.902,3.479 56.047,3.41 44.506,2.99 32.934,3.371 21.422,2.072 17.498,1.631 13.561,1.301 9.633,0.881 9.24,0.838 8.875,0.521 8.496,0.332 M 2.662,111.838 c 0.068,-0.002 0.135,-0.003 0.203,-0.004 0.018,0.402 0.033,0.807 0.053,1.209 0.193,3.875 0.398,7.748 0.576,11.623 0.268,5.889 0.586,11.775 0.74,17.667 0.061,2.339 -0.371,4.688 -0.38,7.034 -0.016,3.051 0.205,6.103 0.24,9.156 0.011,0.995 0.142,1.713 1.351,1.672 0.188,2.38 0.369,4.664 0.553,6.981 -0.98,0 -1.869,-0.008 -2.758,0.003 -0.695,0.008 -0.931,-0.221 -0.9,-1.005 0.211,-4.995 0.471,-9.994 0.476,-14.992 0.016,-12.605 -0.095,-25.21 -0.154,-37.815 -0.002,-0.51 0,-1.019 0,-1.529 M 1.908,56.419 C 1.766,56.429 1.621,56.438 1.477,56.448 0.904,42.447 0.334,28.445 -0.242,14.299 1.006,14.217 1.943,14.156 2.912,14.094 2.576,28.316 2.242,42.369 1.908,56.419 m 176.368,118.954 c -0.699,-2.089 -1.773,-49.275 -1.259,-50.803 1.279,16.679 2.584,33.696 3.896,50.803 z m -88.258,8.854 c 1.336,0 2.673,-0.045 4.005,0.007 9.133,0.358 18.265,0.705 27.394,1.116 5.664,0.254 11.324,0.568 16.982,0.931 5.877,0.378 11.752,0.83 17.625,1.281 3.346,0.258 6.688,0.574 10.028,0.887 0.252,0.025 0.486,0.242 0.726,0.37 -0.041,0.136 -0.084,0.273 -0.127,0.41 -25.588,-0.93 -51.103,-3.01 -76.633,-5.002 M 18.361,172.355 c 14.416,-0.179 28.674,-1.307 42.887,0.829 -14.189,0.352 -28.299,1.753 -42.482,3.378 -0.137,-1.417 -0.26,-2.705 -0.405,-4.207 M 61.451,7.893 C 61.449,7.918 61.445,7.947 61.443,7.975 52.797,7.857 44.148,7.75 35.504,7.623 26.814,7.494 18.17,8.182 9.473,9.117 9.295,7.379 9.135,5.771 8.953,3.967 26.545,5.281 43.998,6.586 61.451,7.893 m 110.607,100.773 c 0.005,0.004 0.011,0.006 0.019,0.008 0.485,22.234 0.967,44.47 1.451,66.743 h -3.482 c 0.674,-22.318 1.342,-44.534 2.012,-66.751 m -74.894,74.241 c -0.004,-0.012 -0.006,-0.024 -0.008,-0.036 1.002,0 2.004,-0.008 3.006,0 18.319,0.147 36.638,0.275 54.958,0.467 2.199,0.023 4.395,0.393 6.592,0.603 -4.303,0.739 -8.553,0.133 -12.828,-0.223 0.181,0.255 0.385,0.401 0.601,0.421 1.893,0.179 3.784,0.386 5.678,0.488 3.535,0.187 7.072,0.328 10.609,0.445 0.782,0.026 1.084,0.316 0.983,1.072 -0.041,0.321 -0.061,0.646 -0.072,0.769 -23.227,-1.338 -46.373,-2.673 -69.519,-4.006 m 67.23,-165.673 c -30.957,-1.963 -61.708,-5.392 -92.486,-8.535 30.834,2.242 61.669,4.485 92.486,6.727 z m 2.494,164.681 c -0.342,0 -0.561,0.009 -0.782,-0.001 -4.468,-0.215 -8.939,-0.412 -13.408,-0.652 -2.679,-0.145 -5.363,-0.276 -8.031,-0.553 -5.447,-0.565 -10.883,-1.253 -16.328,-1.842 -5.371,-0.58 -10.75,-1.096 -16.125,-1.648 -6.342,-0.651 -12.681,-1.31 -19.021,-1.967 -2.402,-0.248 -4.802,-0.502 -7.203,-0.752 0.283,-0.166 0.569,-0.218 0.852,-0.215 7.496,0.098 14.98,0.369 22.45,1.106 9.273,0.915 18.557,1.748 27.848,2.466 9.367,0.726 18.748,1.266 28.123,1.893 0.543,0.035 1.084,0.105 1.625,0.16 z M 8.641,13.707 c 3.158,33.67 3.888,67.303 5.183,100.906 -0.17,-0.429 -0.148,-0.867 -0.172,-1.301 -0.173,-3.166 -0.339,-6.333 -0.541,-9.499 C 12.703,97.375 12.291,90.935 11.848,84.497 11.535,79.921 11.193,75.347 10.82,70.775 10.445,66.205 10.021,61.639 9.605,57.073 9.189,52.506 8.748,47.941 8.332,43.375 7.924,38.883 7.508,34.395 7.145,29.898 6.9,26.887 6.687,23.871 6.566,20.854 6.475,18.564 6.547,16.266 6.547,13.893 7.145,13.838 7.84,13.777 8.641,13.707 m 127.983,168.031 c -0.744,0 -1.488,-0.001 -2.23,0 -12.043,0.022 -24.086,-0.009 -36.128,0.079 -9.02,0.068 -18.039,0.378 -27.061,0.404 -5.031,0.013 -10.07,-0.248 -15.096,-0.544 -5.58,-0.329 -11.152,-0.838 -16.728,-1.27 -2.324,-0.179 -4.651,-0.36 -6.979,-0.54 34.758,-0.646 69.491,-0.26 104.222,1.871 M 164.548,12.625 c -25.61,-1.342 -51.139,-2.08 -76.583,-4.43 7.484,-0.398 14.969,-0.965 22.45,-0.931 6.924,0.031 13.844,0.736 20.77,1.091 9.05,0.463 18.101,0.875 27.154,1.309 2.103,0.1 4.207,0.195 6.351,0.295 -0.05,0.926 -0.093,1.736 -0.142,2.666 M 13.377,167.388 c -1.428,0 -2.543,0.046 -3.65,-0.034 -0.262,-0.02 -0.674,-0.442 -0.711,-0.719 -0.356,-2.696 -0.799,-5.391 -0.924,-8.1 -0.24,-5.289 -0.377,-10.586 -0.405,-15.881 -0.07,-13.008 -0.074,-26.015 -0.064,-39.023 0.002,-2.741 0.172,-5.483 0.266,-8.224 0.144,0.329 0.164,0.659 0.185,0.989 0.405,5.692 0.783,11.385 1.219,17.073 0.463,6.095 0.961,12.187 1.477,18.278 0.443,5.236 1.005,10.463 1.382,15.703 0.477,6.608 0.819,13.226 1.225,19.938 M 6.295,137.687 H 6.027 c 0,-0.89 0.006,-1.78 0,-2.668 C 5.984,129.234 6.074,123.444 5.857,117.667 5.621,111.371 5.123,105.083 4.691,98.795 4.295,93.03 3.768,87.273 3.42,81.504 3.109,76.333 2.752,71.15 2.797,65.976 2.869,57.882 3.336,49.791 3.498,41.697 3.643,34.574 3.6,27.445 3.635,20.318 c 0.01,-1.757 0.002,-3.517 0.002,-5.279 0.117,0 0.232,0 0.349,-0.002 0.241,2.291 0.598,4.576 0.698,6.875 0.336,7.75 0.576,15.506 0.863,23.258 0.23,6.266 0.467,12.529 0.717,18.793 0.201,4.993 0.623,9.986 0.601,14.977 -0.039,8.992 -0.41,17.982 -0.504,26.972 -0.103,9.892 -0.05,19.783 -0.066,29.675 z M 174.696,48.672 c 0.016,0.355 0.043,0.711 0.049,1.066 0.102,5.708 0.168,11.414 0.307,17.118 0.263,10.965 0.699,21.927 0.822,32.892 0.176,15.705 0.035,31.414 0.221,47.119 0.111,9.283 0.593,18.563 0.904,27.846 0.008,0.244 -0.055,0.49 -0.078,0.693 h -1.906 c -1.94,-18.87 -2.196,-107.93 -0.319,-126.734 M 18.797,177.779 c 1.224,-0.145 2.346,-0.293 3.469,-0.41 5.488,-0.57 10.97,-1.201 16.468,-1.676 5.051,-0.436 10.114,-0.832 15.18,-1.011 7.039,-0.248 14.082,-0.863 21.131,-0.138 6.9,0.709 13.803,1.38 20.703,2.083 7.824,0.799 15.648,1.613 23.47,2.426 1.625,0.168 3.25,0.357 4.873,0.537 l -0.018,0.302 c -34.991,-1.869 -70.016,-1.273 -105.026,-1.71 -0.053,0 -0.106,-0.161 -0.25,-0.403 M 126.616,4.855 C 120.886,5.25 115.155,5.965 109.349,5.488 101.914,4.875 94.459,4.531 87.016,4.031 77.674,3.404 68.332,2.766 58.992,2.078 51.107,1.498 43.23,0.791 35.346,0.234 27.049,-0.354 18.748,-0.846 10.447,-1.342 8.205,-1.477 8.201,-1.414 8.287,-3.688 c 0.002,-0.064 0.065,-0.128 0.151,-0.285 4.835,0.233 9.716,0.432 14.593,0.709 6.854,0.391 13.703,0.838 20.553,1.264 6.406,0.396 12.809,0.801 19.215,1.195 7,0.43 13.998,0.856 20.998,1.276 3.055,0.183 6.121,0.236 9.16,0.549 4.523,0.464 9.022,1.152 13.54,1.664 6.701,0.759 13.412,1.451 20.119,2.171 m 41.602,144.727 c -0.149,-0.006 -0.297,-0.013 -0.446,-0.02 -3.087,-43.582 -1.876,-87.187 -0.765,-130.841 2.244,0.17 4.42,0.336 6.644,0.504 0,1.023 0.01,1.879 -0.002,2.734 -0.154,9.961 -0.091,19.93 -0.527,29.877 -0.459,10.541 -1.467,21.057 -2.096,31.593 -0.677,11.395 -1.236,22.798 -1.773,34.202 -0.404,8.572 -0.711,17.15 -1.025,25.726 -0.077,2.073 -0.01,4.151 -0.01,6.225 m 13.488,19.959 c -0.057,-0.017 -0.113,-0.033 -0.17,-0.049 -0.246,-2.969 -0.512,-5.935 -0.736,-8.906 -0.342,-4.535 -0.664,-9.072 -0.981,-13.61 -0.425,-6.101 -0.863,-12.202 -1.25,-18.305 -0.306,-4.839 -0.582,-9.682 -0.806,-14.525 -0.28,-6 -0.739,-12.003 -0.69,-18.001 0.129,-15.959 0.492,-31.916 0.756,-47.874 0.125,-7.607 0.24,-15.216 0.348,-22.826 0.027,-1.959 0.004,-3.916 0.004,-5.914 2.461,0.168 4.64,0.315 6.886,0.467 0,0.607 0.018,1.125 -0.004,1.639 -0.349,8.461 -0.691,16.922 -1.06,25.381 -0.508,11.591 -1.137,23.176 -1.531,34.772 -0.354,10.402 -0.592,20.813 -0.653,31.22 -0.111,18.515 -0.05,37.03 -0.064,55.546 0,0.328 -0.031,0.656 -0.049,0.985 M 9.891,13.734 c 0.265,-0.037 0.48,-0.076 0.695,-0.093 4.754,-0.43 9.508,-0.844 14.258,-1.286 6.795,-0.63 13.582,-1.324 20.381,-1.904 4.83,-0.414 9.673,-0.935 14.511,-0.943 4.723,-0.008 9.452,0.521 14.172,0.914 5.162,0.428 10.317,0.967 15.475,1.461 4.937,0.471 9.875,0.939 14.81,1.426 4.898,0.484 9.79,1.021 14.691,1.474 6.349,0.586 12.703,1.135 19.058,1.66 6.356,0.526 12.715,1.004 19.073,1.504 2.408,0.188 4.816,0.375 7.295,0.569 0,0.367 0.007,0.658 0,0.947 -0.233,8.205 -0.5,16.408 -0.686,24.611 -0.17,7.607 -0.359,15.215 -0.346,22.822 0.024,13.732 0.092,27.464 0.336,41.194 0.145,8.129 0.633,16.252 1.012,24.377 0.309,6.633 0.654,13.263 1.033,19.893 0.438,7.666 0.932,15.329 1.406,23.06 -0.32,0.028 -0.609,0.076 -0.898,0.076 -2.986,-0.008 -5.975,0.045 -8.959,-0.047 -12.937,-0.398 -25.879,-0.777 -38.812,-1.288 -9.28,-0.366 -18.552,-0.917 -27.826,-1.405 -10.615,-0.561 -21.23,-1.133 -31.843,-1.722 -5.323,-0.295 -10.649,-0.566 -15.961,-0.977 -5.614,-0.434 -11.213,-1.018 -16.821,-1.537 -2.627,-0.243 -5.254,-0.486 -7.927,-0.733 -0.034,-0.227 -0.073,-0.406 -0.084,-0.585 -0.6,-9.865 -1.282,-19.727 -1.778,-29.598 -0.595,-11.85 -1.045,-23.708 -1.537,-35.563 C 14.309,94.585 14.047,87.128 13.746,79.672 13.473,72.85 13.217,66.025 12.881,59.206 12.506,51.643 12.076,44.082 11.613,36.525 11.336,31.947 10.957,27.373 10.611,22.799 c -0.226,-3.002 -0.476,-6 -0.72,-9.065 m 159.895,123.168 c -0.064,-0.285 -0.191,-0.574 -0.183,-0.859 0.084,-3.27 0.191,-6.541 0.293,-9.812 -0.038,0.001 -0.075,0.003 -0.114,0.005 v 10.668 c -0.043,0.291 -0.117,0.581 -0.127,0.872 -0.164,5.847 -0.32,11.695 -0.48,17.541 -0.092,3.374 -0.19,6.747 -0.283,10.12 -0.217,-1.33 -0.42,-2.666 -0.373,-3.994 0.269,-7.865 0.591,-15.727 0.916,-23.589 0.013,-0.321 0.23,-0.633 0.351,-0.952 M 0.334,172.391 c -3.502,0 -6.99,-0.012 -10.477,0.007 -1.041,0.005 -2.109,-0.019 -3.115,0.2 -0.553,0.12 -1.168,0.63 -1.43,1.132 -0.136,0.259 0.334,1.024 0.715,1.321 0.698,0.541 1.528,0.913 2.315,1.337 0.638,0.344 1.246,0.358 1.594,-0.394 0.322,-0.699 -0.057,-1.125 -0.68,-1.406 -0.113,-0.051 -0.205,-0.147 -0.471,-0.342 3.908,-0.204 7.608,-0.396 11.512,-0.6 -0.162,1.506 -0.322,2.989 -0.492,4.56 -2.785,0.139 -5.491,0.216 -8.186,0.428 -2.146,0.168 -4.277,0.521 -6.418,0.741 -0.318,0.033 -0.666,-0.218 -1,-0.334 -0.328,-0.113 -0.687,-0.355 -0.978,-0.292 -0.244,0.052 -0.539,0.442 -0.588,0.722 -0.178,1.017 -0.313,2.049 -0.358,3.079 -0.019,0.418 0.139,1.114 0.395,1.21 0.371,0.138 0.91,-0.125 1.363,-0.267 0.311,-0.097 0.586,-0.38 0.893,-0.403 4.713,-0.357 9.429,-0.684 14.426,-1.039 -0.344,1.013 -0.561,1.779 -0.86,2.513 -1.025,2.521 -0.875,4.86 0.94,7.004 0.455,0.539 0.947,0.807 1.519,0.34 0.578,-0.472 0.424,-1.011 -0.053,-1.545 -1.341,-1.502 -1.425,-3.199 -0.713,-5.01 0.26,-0.658 0.6,-1.332 0.637,-2.013 0.065,-1.121 0.637,-1.338 1.592,-1.317 1.701,0.039 3.404,0.012 5.1,0.012 0.351,3.106 0.668,6.024 1.023,8.938 0.086,0.698 0.287,1.384 0.455,2.07 0.205,0.842 0.762,1.311 1.621,1.214 0.912,-0.103 1.082,-0.83 1.037,-1.585 -0.185,-3.014 -0.398,-6.026 -0.601,-9.037 -0.016,-0.217 -0.037,-0.434 -0.069,-0.779 1.131,0.172 2.176,0.331 3.25,0.494 0.416,2.343 0.827,4.683 1.252,7.018 0.2,1.085 0.537,2.066 1.879,1.937 0.264,1.479 0.498,2.872 0.766,4.257 0.146,0.752 0.492,1.428 1.402,1.234 0.836,-0.179 0.985,-0.816 0.903,-1.647 -0.35,-3.563 -0.635,-7.132 -0.936,-10.7 -0.035,-0.44 -0.004,-0.887 -0.004,-1.438 0.985,0.071 1.932,0.194 2.879,0.198 9.699,0.031 19.398,0.1 29.096,0.035 4.812,-0.031 9.623,-0.453 14.435,-0.44 3.272,0.008 6.543,0.467 9.815,0.721 5.357,0.414 10.713,0.827 16.068,1.237 5.43,0.416 10.859,0.836 16.29,1.238 4.576,0.339 9.154,0.668 13.731,0.98 6.588,0.45 13.173,0.924 19.765,1.303 6.854,0.396 13.715,0.691 20.573,1.027 1.488,0.073 2.978,0.133 4.742,0.213 -0.188,0.557 -0.375,1.023 -0.492,1.506 -0.075,0.305 -0.151,0.678 -0.043,0.95 0.875,2.242 0.544,4.563 0.513,6.865 -0.045,3.56 -0.103,7.123 -0.144,10.683 -0.004,0.236 0.099,0.471 0.152,0.707 0.107,-0.005 0.217,-0.013 0.326,-0.019 -0.088,-2.267 -0.281,-4.535 -0.236,-6.799 0.045,-2.299 0.326,-4.594 0.514,-7.006 0.398,0.061 0.777,0.119 1.156,0.177 0,5.925 0.004,11.767 -0.002,17.609 -0.002,1.15 -0.043,2.298 -0.063,3.448 -0.009,0.573 0.141,1.198 -0.687,1.405 -0.145,0.036 -0.276,0.431 -0.281,0.664 -0.041,1.818 -0.047,3.638 -0.073,5.456 -0.009,0.591 -0.033,1.185 -0.07,1.774 -0.027,0.446 -0.131,0.889 -0.131,1.333 0,1.164 0.666,2.011 1.522,1.994 0.841,-0.02 1.406,-0.735 1.408,-1.952 0.002,-3.953 -0.031,-7.906 -0.053,-11.859 -0.035,-6.957 -0.082,-13.912 -0.092,-20.869 -0.002,-0.441 0.325,-0.872 0.397,-1.324 0.103,-0.641 0.172,-1.298 0.146,-1.945 -0.031,-0.842 -0.17,-1.678 -0.271,-2.6 h 4.387 c 0.136,1.441 0.283,2.835 0.394,4.23 0.189,2.381 0.395,4.76 0.508,7.145 0.035,0.701 -0.338,1.422 -0.299,2.121 0.051,0.901 0.301,1.797 0.543,2.672 0.039,0.134 0.662,0.287 0.736,0.199 0.223,-0.27 0.45,-0.662 0.428,-0.988 -0.357,-5.051 -0.752,-10.097 -1.137,-15.145 -0.004,-0.033 0.022,-0.068 0.051,-0.148 h 1.385 c 0.18,1.74 0.435,3.466 0.514,5.201 0.082,1.847 -0.018,3.702 -0.006,5.554 0.002,0.237 0.197,0.472 0.302,0.709 0.196,-0.218 0.557,-0.435 0.559,-0.654 0.01,-1.781 -0.006,-3.565 -0.094,-5.346 -0.088,-1.777 -0.267,-3.55 -0.412,-5.386 h 3.213 c 0.082,1.585 0.205,3.068 0.205,4.551 0,0.603 -0.314,1.201 -0.406,1.812 -0.049,0.308 0.08,0.643 0.129,0.965 0.322,-0.15 0.863,-0.238 0.924,-0.459 0.23,-0.846 0.306,-1.733 0.431,-2.555 0.407,4.132 0.819,8.33 1.231,12.528 0.138,-0.011 0.277,-0.022 0.414,-0.034 0.086,-1.818 -0.414,-3.605 -0.555,-5.41 -0.144,-1.851 -0.346,-3.699 -0.467,-5.552 -0.123,-1.892 -0.181,-3.789 -0.271,-5.745 2.138,-0.105 4.217,-0.141 6.281,-0.336 1.191,-0.112 2.356,-0.501 3.541,-0.718 0.301,-0.056 0.647,0.024 0.953,0.111 0.836,0.234 1.664,0.505 2.494,0.762 0.051,-0.159 0.102,-0.316 0.153,-0.473 -0.651,-0.183 -1.293,-0.395 -1.951,-0.541 -0.696,-0.152 -1.166,-0.324 -1.461,-1.174 -0.211,-0.613 -1.112,-1.244 -1.807,-1.39 -2.432,-0.516 -4.908,-0.825 -7.369,-1.211 -0.252,-0.039 -0.506,-0.066 -0.817,-0.106 v -1.8 c 2.354,0 4.692,0.025 7.032,-0.005 6.974,-0.082 13.949,-0.171 20.925,-0.302 0.543,-0.011 1.176,-0.239 1.582,-0.584 0.247,-0.209 0.313,-0.948 0.131,-1.25 -0.183,-0.305 -0.834,-0.587 -1.172,-0.492 -0.82,0.228 -1.451,0.159 -2.181,-0.315 -0.389,-0.25 -1.053,-0.103 -1.59,-0.085 -0.918,0.03 -1.848,0.217 -2.748,0.117 -0.858,-0.094 -1.539,-0.225 -1.424,1.087 h -20.557 c -0.017,-0.32 -0.044,-0.677 -0.056,-1.035 -0.01,-0.324 -0.002,-0.65 -0.002,-0.998 2.076,-0.105 4.045,-0.157 6.006,-0.314 2.078,-0.167 4.152,-0.407 6.218,-0.672 0.737,-0.094 1.543,-0.293 1.461,-1.317 -0.087,-1.071 -0.89,-1.138 -1.722,-1.123 -1.66,0.033 -1.783,0.121 -1.729,1.427 -3.361,0.263 -6.728,0.525 -10.179,0.795 v -2.483 c 2.748,-0.127 5.459,-0.275 8.169,-0.373 5.258,-0.188 10.516,-0.348 15.774,-0.522 1.226,-0.041 2.461,-0.02 3.674,-0.178 0.361,-0.047 0.656,-0.606 0.982,-0.931 -0.41,-0.212 -0.83,-0.625 -1.228,-0.607 -7.037,0.334 -14.075,0.726 -21.112,1.095 -2.047,0.107 -4.097,0.182 -6.277,0.276 -0.838,-51.812 0.133,-103.499 3.211,-155.085 1.211,0 2.613,-0.029 4.017,0.006 7.047,0.18 14.092,0.453 21.141,0.543 5.686,0.072 11.305,-0.703 16.879,-1.793 0.545,-0.107 1.125,-0.068 1.652,-0.222 0.309,-0.092 0.709,-0.397 0.768,-0.668 0.059,-0.276 -0.18,-0.711 -0.42,-0.934 -0.639,-0.588 -3.002,-0.777 -3.641,-0.266 -0.238,0.192 -0.252,0.666 -0.384,1.063 -6.014,2.01 -27.961,2.467 -40.049,0.808 v -2.652 c 2.625,0.123 5.148,0.209 7.666,0.367 3.717,0.237 7.429,0.518 11.144,0.791 0.327,0.026 0.657,0.108 0.971,0.205 1.365,0.426 1.668,0.27 2.084,-1.193 3.213,0.205 6.453,0.35 9.678,0.646 1.842,0.17 3.658,0.602 5.49,0.895 0.475,0.076 0.965,0.121 1.445,0.102 0.666,-0.026 1.293,-0.184 1.305,-1.047 0.014,-0.899 -0.625,-0.975 -1.299,-1 -3.242,-0.121 -6.486,-0.194 -9.726,-0.381 -6.815,-0.391 -13.625,-0.842 -20.438,-1.272 -2.633,-0.166 -5.266,-0.336 -8.033,-0.513 0.127,-1.033 0.238,-1.938 0.363,-2.951 2.504,0.187 4.945,0.382 7.389,0.55 8.902,0.61 17.805,1.02 26.734,0.668 3.615,-0.14 7.106,-0.722 10.492,-1.937 0.36,-0.129 0.916,-0.674 0.862,-0.807 -0.215,-0.512 -0.625,-0.951 -1.012,-1.373 -0.059,-0.064 -0.541,0.096 -0.549,0.18 -0.037,0.365 0.028,0.742 0.049,1.041 -4.094,1.853 -8.496,1.978 -12.91,1.933 -4.738,-0.048 -9.477,-0.187 -14.215,-0.291 -0.213,-0.004 -0.426,-0.037 -0.643,-0.23 0.748,-0.059 1.52,-0.025 2.235,-0.211 0.422,-0.109 0.756,-0.564 1.131,-0.863 -0.303,-0.319 -0.565,-0.701 -0.922,-0.936 -0.33,-0.217 -0.766,-0.265 -1.151,-0.402 -1.031,-0.362 -1.273,-0.18 -1.271,1.117 h -16.01 C 187.089,8.9 187.06,8.582 187.03,8.27 c 0.135,-0.09 0.219,-0.188 0.313,-0.2 0.886,-0.119 1.771,-0.273 2.662,-0.314 0.961,-0.047 1.754,-0.188 1.564,-1.469 1.868,0 3.618,0.041 5.364,-0.017 0.808,-0.026 1.648,-0.137 2.396,-0.418 0.408,-0.155 0.902,-0.743 0.902,-1.137 0.002,-0.422 -0.449,-1.094 -0.843,-1.225 -1.682,-0.552 -3.41,-0.967 -5.135,-1.367 -0.209,-0.049 -0.51,0.297 -0.77,0.461 0.202,0.264 0.346,0.654 0.612,0.77 1.045,0.453 2.127,0.816 3.166,1.451 -0.393,0.041 -0.783,0.121 -1.176,0.117 -5.336,-0.055 -10.672,-0.117 -16.01,-0.188 -1.865,-0.023 -2.25,-0.437 -2.236,-2.345 0.002,-0.293 0.057,-0.586 0.096,-0.961 2.828,-0.323 5.625,-0.717 8.437,-0.946 4.459,-0.365 8.926,-0.617 13.389,-0.921 0.83,-0.057 1.662,-0.118 2.484,-0.237 0.199,-0.029 0.498,-0.293 0.51,-0.465 0.017,-0.246 -0.145,-0.691 -0.301,-0.726 -0.517,-0.115 -1.072,-0.151 -1.6,-0.094 -0.916,0.1 -1.82,0.356 -2.736,0.434 -5.015,0.423 -10.031,0.804 -15.047,1.222 -1.631,0.137 -3.254,0.342 -5.056,0.534 0.22,-2.133 0.449,-4.194 0.646,-6.257 0.213,-2.262 0.401,-4.528 0.59,-6.793 0.023,-0.297 0.074,-0.633 -0.037,-0.887 -0.162,-0.371 -0.459,-0.684 -0.699,-1.021 -0.348,0.281 -0.928,0.513 -1.002,0.855 -0.205,0.936 -0.241,1.916 -0.264,2.881 -0.037,1.512 0.029,3.025 -0.021,4.535 -0.036,1.039 -0.194,2.073 -0.461,3.104 0.05,-0.726 0.109,-1.453 0.15,-2.18 0.037,-0.67 0.051,-1.34 0.076,-2.01 0.028,-0.637 -0.047,-1.35 -0.834,-1.264 -0.336,0.037 -0.828,0.737 -0.855,1.161 -0.145,2.15 -0.162,4.311 -0.217,6.467 -0.008,0.371 0.086,0.756 0.01,1.108 -0.055,0.258 -0.309,0.472 -0.475,0.707 -0.078,-0.061 -0.156,-0.121 -0.236,-0.182 -0.135,-1.058 -0.168,-2.146 -0.428,-3.174 -0.355,-1.4 -1.523,-1.679 -2.611,-0.72 -0.065,-0.026 -0.139,-0.038 -0.194,-0.077 -0.441,-0.328 -0.8,-1.15 -1.459,-0.56 -0.652,0.588 0.135,1.041 0.393,1.521 0.584,1.084 1.178,2.162 1.853,3.405 -1.88,0.199 -3.388,0.359 -5.002,0.529 0,-2.117 -0.064,-4.164 0.022,-6.205 0.062,-1.458 0.555,-2.866 -0.414,-4.296 -0.361,-0.535 -0.059,-1.522 -0.059,-2.291 0.123,-0.033 0.2,-0.08 0.252,-0.063 0.615,0.223 1.395,0.741 1.77,-0.052 0.211,-0.444 -0.188,-1.211 -0.395,-1.807 -0.09,-0.258 -0.343,-0.539 -0.593,-0.646 -0.614,-0.264 -1.397,-0.748 -1.866,-0.553 -0.472,0.195 -0.857,1.086 -0.912,1.705 -0.131,1.482 -0.154,2.992 -0.021,4.473 0.175,1.966 -0.342,3.657 -1.471,5.237 -0.32,0.451 -1.033,1.088 -0.201,1.592 0.328,0.197 1,-0.178 1.588,-0.307 v 3.449 c -1.727,0.184 -3.522,0.422 -5.326,0.555 -3.94,0.289 -7.887,0.77 -11.825,0.723 C 142.644,2.832 137.808,2.305 132.968,2.002 128.274,1.709 123.581,1.439 118.888,1.17 113.003,0.834 107.116,0.523 101.232,0.17 97.287,-0.066 93.336,-0.268 89.404,-0.646 84.654,-1.102 79.922,-1.732 75.182,-2.283 70.295,-2.852 65.404,-3.402 60.518,-3.984 56.816,-4.424 53.129,-5.025 49.418,-5.339 42.842,-5.894 36.256,-6.36 29.666,-6.722 22.869,-7.095 16.094,-6.632 9.34,-5.833 8.945,-5.786 8.537,-5.827 8.053,-5.827 7.832,-8.198 7.564,-10.524 7.406,-12.856 7.141,-16.8 6.93,-20.745 6.729,-24.69 c -0.036,-0.666 0.085,-1.338 0.136,-2.008 0.065,-0.862 -0.238,-1.58 -1.154,-1.586 -0.92,-0.006 -1.199,0.709 -1.164,1.572 0.158,3.949 0.324,7.899 0.437,11.85 0.08,2.795 0.084,5.591 0.108,8.386 0.004,0.373 -0.069,0.745 -0.106,1.118 C 4.861,-5.354 4.734,-5.349 4.609,-5.345 4.496,-6.298 4.367,-7.249 4.273,-8.204 4.221,-8.722 4.217,-9.247 4.205,-9.771 c -0.033,-1.455 -0.254,-1.71 -1.654,-1.923 -0.264,-1.321 -0.516,-2.631 -0.789,-3.94 -0.145,-0.681 -0.473,-1.201 -1.285,-1.103 -0.791,0.095 -0.856,0.711 -0.907,1.328 -0.031,0.369 -0.107,0.738 -0.101,1.109 0.006,0.276 0.054,0.764 0.177,0.795 1.282,0.326 1.01,1.408 1.116,2.26 0.236,1.91 0.406,3.83 0.605,5.773 H -2.24 c -0.082,-0.48 -0.198,-0.906 -0.223,-1.34 -0.31,-5.347 -0.605,-10.695 -0.912,-16.042 -0.037,-0.631 -0.109,-1.262 -0.199,-1.887 -0.112,-0.776 -0.66,-1.211 -1.332,-0.94 -0.408,0.166 -0.881,0.866 -0.858,1.297 0.303,5.203 0.705,10.399 1.051,15.6 0.068,1.035 0.01,2.08 0.01,3.449 -2.016,0 -4.051,0.029 -6.084,-0.008 -2.338,-0.043 -4.51,0.374 -6.383,1.905 -0.687,0.561 -1.457,0.936 -2.312,0.178 -0.143,-0.125 -0.645,-0.119 -0.719,-0.006 -0.703,1.086 -1.729,0.594 -2.617,0.524 -0.791,-0.063 -1.416,0.054 -1.463,0.912 -0.047,0.82 0.572,0.992 1.304,0.99 3.577,-0.002 7.155,0.024 10.733,0.039 h 1.012 c 0.005,0.115 0.009,0.231 0.015,0.346 -0.377,0.018 -0.756,0.037 -1.133,0.053 -1.599,0.068 -3.199,0.113 -4.795,0.22 -0.343,0.024 -0.748,0.192 -0.986,0.43 -0.183,0.188 -0.283,0.65 -0.176,0.875 0.102,0.213 0.534,0.41 0.797,0.381 1.354,-0.141 2.694,-0.477 4.047,-0.524 2.721,-0.093 5.447,-0.048 8.172,-0.052 0.527,-0.002 1.105,-0.026 0.914,0.931 -2.48,0 -4.975,-0.031 -7.467,0.016 -0.976,0.02 -1.965,0.154 -2.918,0.371 -0.261,0.059 -0.615,0.615 -0.586,0.908 0.112,1.063 1.586,1.735 2.496,1.211 1.045,-0.603 2.047,-0.931 3.038,0.162 0.189,0.207 0.695,0.17 1.054,0.174 1.483,0.018 2.965,0.006 4.565,0.006 0.134,2.277 0.25,4.232 0.379,6.391 -3.502,0.427 -6.963,0.869 -10.428,1.263 -2.108,0.239 -4.223,0.448 -6.338,0.569 -0.59,0.033 -1.307,-0.151 -1.777,-0.491 -1.325,-0.959 -2.543,-2.064 -3.825,-3.082 -0.187,-0.148 -0.5,-0.134 -0.753,-0.195 0.027,0.287 -0.057,0.682 0.099,0.844 1.092,1.123 2.209,2.223 3.367,3.277 1.19,1.086 2.619,1.278 4.18,1.053 1.172,-0.17 2.365,-0.19 3.59,-0.275 -0.465,1.656 -0.166,2.066 1.49,1.902 3.109,-0.309 6.211,-0.705 9.316,-1.063 0.399,-0.046 0.797,-0.074 1.249,-0.115 0.175,2.723 0.332,5.361 0.519,7.996 0.395,5.506 0.816,11.01 1.203,16.518 0.289,4.092 0.553,8.183 0.809,12.277 0.437,6.999 0.849,13.999 1.289,20.997 0.306,4.877 0.82,9.749 0.92,14.63 0.22,10.971 0.275,21.947 0.338,32.921 0.064,11.643 0.166,23.288 0.033,34.929 -0.063,5.551 -0.635,11.093 -0.979,16.64 -0.007,0.108 -0.045,0.211 -0.152,0.698"
         style="fill:#ffffff;fill-opacity:1;fill-rule:evenodd;stroke:none"
         id="path3936"
         inkscape:connector-curvature="0" />
    </g>
    <g
       id="g3938"
       transform="matrix(0.54605023,0,0,-0.54605023,56.086481,125.68768)">
      <path
         d="M 0,0 C -0.162,0.014 -0.324,0.025 -0.486,0.037"
         style="fill:#ffffff;fill-opacity:1;fill-rule:evenodd;stroke:none"
         id="path3940"
         inkscape:connector-curvature="0" />
    </g>
    <g
       id="g3942"
       transform="matrix(0.54605023,0,0,-0.54605023,57.671283,102.87518)">
      <path
         d="M 0,0 H 0.377"
         style="fill:#ffffff;fill-opacity:1;fill-rule:evenodd;stroke:none"
         id="path3944"
         inkscape:connector-curvature="0" />
    </g>
    <g
       id="g3946"
       transform="matrix(0.54605023,0,0,-0.54605023,49.475233,148.93107)">
      <path
         d="M 0,0 C -0.053,-0.217 -0.104,-0.434 -0.154,-0.65"
         style="fill:#ffffff;fill-opacity:1;fill-rule:evenodd;stroke:none"
         id="path3948"
         inkscape:connector-curvature="0" />
    </g>
    <g
       id="g3950"
       transform="matrix(0.54605023,0,0,-0.54605023,51.525051,157.10588)">
      <path
         d="M 0,0 H 1.898"
         style="fill:#ffffff;fill-opacity:1;fill-rule:evenodd;stroke:none"
         id="path3952"
         inkscape:connector-curvature="0" />
    </g>
    <g
       id="g3954"
       transform="matrix(0.54605023,0,0,-0.54605023,52.671538,155.99456)">
      <path
         d="M 0,0 C 0.023,-0.146 0.049,-0.291 0.072,-0.437"
         style="fill:#ffffff;fill-opacity:1;fill-rule:evenodd;stroke:none"
         id="path3956"
         inkscape:connector-curvature="0" />
    </g>
    <g
       id="g3958"
       transform="matrix(0.54605023,0,0,-0.54605023,51.560216,156.39132)">
      <path
         d="M 0,0 C -0.02,0.158 -0.041,0.314 -0.062,0.471"
         style="fill:#ffffff;fill-opacity:1;fill-rule:evenodd;stroke:none"
         id="path3960"
         inkscape:connector-curvature="0" />
    </g>
    <g
       id="g3962"
       transform="matrix(0.54605023,0,0,-0.54605023,144.45865,138.30767)">
      <path
         d="m 0,0 c 0.139,-0.285 0.32,-0.559 0.41,-0.859 0.772,-2.614 0.777,-5.274 0.475,-7.952 -0.1,-0.886 -0.194,-1.775 -0.348,-2.654 -0.039,-0.213 -0.301,-0.387 -0.459,-0.578 -0.074,0.217 -0.226,0.441 -0.205,0.647 0.139,1.255 0.482,2.511 0.443,3.757 -0.068,2.256 -0.355,4.504 -0.552,6.754 -0.024,0.262 -0.053,0.524 -0.078,0.787 C -0.211,-0.066 -0.105,-0.033 0,0"
         style="fill:#ffffff;fill-opacity:1;fill-rule:evenodd;stroke:none"
         id="path3964"
         inkscape:connector-curvature="0" />
    </g>
    <g
       id="g3970"
       transform="matrix(0.54605023,0,0,-0.54605023,-151.54699,264.38766)">
      <g
         id="g3972"
         clip-path="url(#clipPath3976)">
        <g
           id="g3978"
           transform="translate(487.6885,311.457)">
          <path
             d="m 0,0 c -1.857,-3.094 -4.639,-5.212 -7.424,-7.334 -1.363,-1.039 -2.771,-2.028 -4.355,-2.791 3.58,3.025 6.433,6.58 7.459,11.205 1.058,4.773 -0.473,9.033 -3.27,12.933 0.254,0.191 0.424,-0.085 0.594,-0.191 C -4.518,12.25 -2.088,10.584 -0.41,8.121 1.346,5.542 1.707,2.844 0,0 m -16.184,-11.58 c 0.983,1.043 1.92,2.162 3.37,2.625 -0.991,-1.034 -2.112,-1.908 -3.37,-2.625 m -15.159,-7.069 c 4.229,2.1 8.13,4.186 11.956,6.444 -3.373,-3.05 -7.046,-5.584 -11.956,-6.444 m -14.295,-7.185 c -0.345,1.062 -0.049,1.568 1.002,1.844 4.342,1.136 8.729,2.109 13.012,3.489 -4.432,-2.419 -9.207,-3.909 -14.014,-5.333 m -0.238,3.756 c -0.164,0.478 0.291,0.506 0.576,0.588 5.311,1.511 10.467,3.436 15.518,5.66 0.646,0.284 1.342,0.459 2.013,0.684 0.024,-0.092 0.049,-0.186 0.073,-0.28 -5.621,-2.676 -11.108,-5.689 -17.358,-6.777 -0.285,-0.051 -0.66,-0.342 -0.822,0.125 m -0.314,4.418 c -0.336,5.152 -0.766,10.298 -1.293,15.435 -0.061,0.573 -0.008,1.156 -0.008,1.808 0.318,5.515 0.678,11.105 0.953,16.696 0.107,2.196 -0.037,4.399 -0.24,6.59 -0.059,0.617 0.015,0.908 0.75,0.887 5.931,-0.175 11.802,-0.84 17.601,-2.102 0.35,-0.076 0.717,-0.168 1.016,-0.351 6.222,-3.799 10.909,-8.854 12.874,-16.051 0.455,-1.668 0.682,-3.414 0.308,-5.148 -0.39,-1.823 -1.058,-3.434 -2.617,-4.7 -5.582,-4.533 -11.926,-7.664 -18.516,-10.371 -3.231,-1.327 -6.457,-2.675 -9.951,-3.179 -0.442,-0.063 -0.829,-0.254 -0.877,0.486 m -1.548,-47.09 c -0.518,1.599 -1.144,6.229 -1.226,7.898 -0.424,8.454 -0.754,16.911 -1.16,25.365 -0.045,0.9 0.201,1.317 1.082,1.489 0.664,0.129 1.295,0.422 2.059,0.682 0.388,-10.889 0.333,-24.665 -0.755,-35.434 m -2.531,36.067 c -0.044,0.242 0.159,0.285 0.329,0.329 0.918,0.245 1.836,0.486 2.753,0.728 0.032,-0.097 0.063,-0.192 0.094,-0.288 -0.888,-0.32 -1.773,-0.65 -2.67,-0.949 -0.17,-0.057 -0.447,-0.143 -0.506,0.18 m 0.358,3.009 c 0.918,0.278 1.838,0.553 2.752,0.827 0.388,-1.046 0.027,-1.534 -0.987,-1.659 -0.494,-0.06 -0.97,-0.256 -1.462,-0.357 -0.248,-0.051 -0.62,-0.258 -0.682,0.203 -0.049,0.363 -0.164,0.821 0.379,0.986 m -0.875,6.909 c -1.406,8.259 -1.11,16.511 0.826,24.742 0.256,-1.723 0.484,-3.451 0.772,-5.168 0.582,-3.489 -0.188,-6.912 -0.497,-10.352 -0.277,-3.088 -0.728,-6.16 -1.101,-9.222 m -1.067,-25.809 c -0.484,1.357 -0.287,2.492 0,3.628 z m -0.585,15.029 c -0.555,-0.132 -1.11,-0.258 -1.665,-0.386 -0.283,-0.06 -0.503,-0.005 -0.541,0.327 -0.033,0.29 0.176,0.34 0.401,0.377 0.562,0.089 1.121,0.188 1.681,0.28 0.194,0.032 0.358,-0.003 0.405,-0.23 0.049,-0.228 -0.094,-0.323 -0.281,-0.368 m 0.171,-2.226 c -0.197,-1.938 -0.443,-3.873 -0.673,-5.807 -0.051,-0.014 -0.1,-0.028 -0.149,-0.041 -0.369,1.904 -0.808,3.799 -1.084,5.717 -0.164,1.141 0.942,0.678 1.467,0.858 0.769,0.263 0.469,-0.453 0.439,-0.727 m -2.546,-20.241 c -0.104,5.182 -0.043,10.373 0.146,15.676 1.82,-5.309 0.844,-10.487 -0.146,-15.676 m 0.31,25.178 c 0.563,0.102 1.119,0.239 1.682,0.344 0.285,0.053 0.584,0.101 0.592,-0.358 0.003,-0.353 -0.018,-0.648 -0.467,-0.695 -0.533,-0.055 -1.067,-0.13 -1.635,-0.201 -0.193,0.012 -0.496,-0.132 -0.541,0.267 -0.035,0.303 -0.027,0.571 0.369,0.643 m -0.926,8.732 c -0.093,1.318 -0.185,2.635 -0.281,3.953 -0.42,5.815 -0.242,11.639 -0.309,17.461 -0.058,5.198 -0.226,10.398 -0.796,15.575 -0.032,0.269 -0.153,0.653 0.242,0.726 0.496,0.092 0.31,-0.367 0.367,-0.601 0.074,-0.311 0.25,-0.637 0.529,-0.608 0.797,0.085 0.752,-0.47 0.805,-0.945 0.805,-7.188 1.31,-14.398 1.545,-21.627 0.107,-3.279 -0.768,-6.444 -1.17,-9.664 -0.18,-1.425 -0.469,-2.836 -0.709,-4.254 -0.074,-0.006 -0.148,-0.011 -0.223,-0.016 m -1.584,41.155 c 0.03,0.392 0.459,0.23 0.698,0.34 0.158,0.074 0.355,0.15 0.494,-0.016 0.174,-0.211 -0.016,-0.389 -0.098,-0.577 -0.199,-0.452 -0.387,-0.908 -0.596,-1.402 -0.713,0.418 -0.543,1.073 -0.498,1.655 m 0.375,3.363 c 0.506,-0.027 0.403,-0.564 0.479,-0.919 0.08,-0.378 -0.125,-0.486 -0.469,-0.497 -0.576,-0.021 -0.291,0.431 -0.394,0.664 0.046,0.307 -0.028,0.773 0.384,0.752 m 1.504,7.252 c 0.994,0.131 1.998,0.224 3,0.291 1.227,0.084 1.459,-0.158 1.471,-1.451 0.072,-0.553 -0.152,-0.795 -0.772,-0.819 -1.541,-0.058 -3.082,-0.171 -4.619,-0.3 -0.433,-0.036 -0.556,0.074 -0.564,0.505 -0.029,1.264 0.217,1.607 1.484,1.774 m 1.809,-7.369 c -0.069,-0.082 -0.166,-0.182 -0.164,-0.274 0.004,-0.572 -0.262,-0.902 -0.834,-0.771 -0.647,0.148 -0.406,0.797 -0.428,1.174 -0.033,0.595 0.576,0.269 0.895,0.379 0.066,0.023 0.142,0.013 0.242,0.021 0.211,-0.028 0.467,0.098 0.689,-0.08 -0.135,-0.148 -0.273,-0.295 -0.4,-0.449 m 0.283,-40.158 c 0.08,-0.006 0.16,-0.011 0.24,-0.016 0.098,-1.742 0.24,-3.482 0.27,-5.227 0.011,-0.744 -0.768,-0.507 -1.172,-0.574 -0.483,-0.078 -0.242,0.416 -0.209,0.631 0.273,1.732 0.578,3.457 0.871,5.186 m 0.766,17.052 c 0.14,4.582 0.281,9.166 0.422,13.749 1.683,-4.634 0.222,-9.187 -0.422,-13.749 m 1.785,25.907 c 0.039,-0.485 -0.25,-0.514 -0.604,-0.511 -0.851,0.005 -1.701,0.001 -2.552,0.001 l -0.024,0.31 c 0.858,0.178 1.717,0.359 2.576,0.534 0.291,0.06 0.569,0.119 0.604,-0.334 m 1.666,-8.897 c 0.015,0.272 0.076,0.554 0.381,0.568 0.488,0.022 0.295,-0.402 0.32,-0.638 0.52,-4.656 -0.053,-9.291 -0.299,-14.171 -0.553,1.586 -0.529,3.038 -0.762,4.441 -0.544,3.285 0.184,6.534 0.36,9.8 m 1.556,-42.496 c 0.055,-0.228 -0.107,-0.342 -0.283,-0.369 -0.754,-0.111 -1.49,-0.384 -2.463,-0.274 0.834,0.582 1.662,0.598 2.416,0.823 0.137,0.041 0.291,-0.01 0.33,-0.18 m -1.802,3.436 c -0.75,0.106 -0.326,0.694 -0.289,1.027 0.324,2.943 0.693,5.883 1.048,8.823 0.053,0.009 0.106,0.019 0.161,0.027 0.228,-2.946 0.468,-5.893 0.677,-8.84 0.049,-0.686 -0.681,-1.166 -1.597,-1.037 m 12.855,45.714 c -1.773,-0.011 -3.467,0.557 -5.213,0.788 -1.824,0.24 -3.65,0.484 -5.478,0.695 -0.475,0.055 -0.629,0.275 -0.586,0.707 0.047,0.482 0.422,0.326 0.66,0.287 3.588,-0.584 7.16,-1.24 10.617,-2.477 m 8.744,-1.334 c -1.722,0.071 -3.181,0.934 -4.675,1.605 1.63,-0.38 3.195,-0.874 4.675,-1.605 m 12.304,-3.837 c -2.738,0.631 -5.068,2.175 -7.551,3.382 -5.68,2.76 -11.602,4.728 -17.872,5.606 -2.14,0.3 -4.254,0.784 -6.422,0.896 -0.726,0.039 -1.07,0.5 -0.976,1.198 0.058,0.439 0.068,0.855 -0.166,1.421 12.549,-0.337 23.715,-3.893 32.987,-12.503 m 5.684,-20.42 c -0.475,-4.655 -8.264,-11.284 -11.782,-12.495 1.789,1.268 3.389,2.477 4.83,3.887 0.913,0.892 1.739,1.848 2.329,2.978 0.38,0.727 1.002,1.223 1.535,1.806 1.07,1.164 2.088,2.372 3.088,3.824 m -12.389,20.826 c 1.268,-0.406 2.654,-0.514 3.904,-1.715 -1.56,0.492 -2.857,0.814 -3.904,1.715 m 1.125,-2.719 c 3.744,-2.656 6.984,-5.778 9.56,-9.629 2.002,-2.991 2,-5.734 -0.238,-8.513 -0.203,-0.252 -0.373,-0.53 -0.57,-0.787 -0.109,-0.139 -0.244,-0.258 -0.363,-0.383 0.236,8.458 -4.118,14.576 -10.153,19.962 0.701,-0.099 1.268,-0.298 1.764,-0.65 m 14.115,-14.5 c 0.961,-2.54 -0.105,-6.227 -2.439,-8.359 1.193,2.759 2.584,5.278 2.439,8.359 m -2.291,4.412 c -1.504,2.428 -3.23,4.68 -5.221,6.725 2.28,-1.186 4.526,-4.086 5.221,-6.725 m -49.145,-23.111 c -0.793,3.465 -1.578,6.931 -2.381,10.393 -1.326,5.726 -2.666,11.449 -3.854,17.205 -0.168,0.812 0.043,0.871 0.707,0.667 0.412,-0.126 0.84,-0.201 1.266,-0.275 0.352,-0.062 0.668,-0.012 0.709,0.437 0.031,0.36 -0.203,0.512 -0.512,0.587 -0.07,0.017 -0.142,0.019 -0.215,0.028 -2.982,0.368 -2.156,0.248 -2.736,2.775 -0.025,0.106 -0.023,0.216 -0.035,0.323 -0.09,0.879 -0.764,2.01 -0.186,2.57 0.877,0.845 2.258,1.028 3.481,1.341 0.56,0.142 0.576,-0.315 0.644,-0.643 0.78,-3.818 1.403,-7.662 2.006,-11.512 1.004,-6.398 0.914,-12.845 1.067,-19.286 0.037,-1.53 0.156,-3.057 0.238,-4.587 z m -9.651,27.269 c -0.433,0.759 -0.963,1.44 -1.646,1.996 -0.317,0.258 -0.553,0.579 -0.547,1.012 0.004,0.322 -0.057,0.69 0.209,0.924 0.344,0.299 0.609,-0.084 0.857,-0.215 0.889,-0.47 1.846,-0.893 2.104,-2.03 0.021,-0.097 0.103,-0.235 0.183,-0.257 1.694,-0.434 0.803,-2.025 1.381,-2.982 -1.148,0.136 -2,0.608 -2.541,1.552 m -1.301,11.448 c 0.575,0.625 1.137,0.038 1.545,-0.135 0.373,-0.156 0,-0.65 -0.33,-0.924 -0.775,-0.646 -1.216,-1.512 -1.371,-2.489 -0.084,-0.54 -0.361,-0.828 -0.89,-1.083 -0.356,1.738 -0.186,3.29 1.046,4.631 m 1.991,-4.825 c 0.496,0.098 0.373,-0.412 0.427,-0.675 0.157,-0.774 0.264,-1.557 0.374,-2.227 -0.383,0.331 -0.797,0.68 -1.2,1.039 -0.32,0.287 -0.429,0.664 -0.394,1.08 0.039,0.479 0.427,0.713 0.793,0.783 m 4.078,7.673 c 0.478,0.101 0.133,-0.571 0.494,-0.637 -0.143,-0.581 -0.59,-0.565 -0.955,-0.59 -0.322,-0.022 -0.803,0.172 -0.723,0.461 0.139,0.496 0.727,0.67 1.184,0.766 m 1.181,-3.483 c -0.324,-0.694 -1.14,-0.443 -1.681,-0.729 -0.242,-0.128 -0.434,0.161 -0.389,0.358 0.188,0.826 1.008,0.736 1.576,0.98 0.42,0.18 0.371,-0.275 0.494,-0.609 m 1.024,3.025 c -0.49,-0.025 -0.379,0.313 -0.465,0.547 -0.125,0.343 -0.281,0.695 0.246,0.865 0.613,0.197 1.221,0.411 1.918,0.646 0.094,-1.519 -0.346,-1.985 -1.699,-2.058 m 1.154,-5.194 c 0.614,-1.81 0.582,-3.726 0.664,-5.623 -0.328,1.856 -0.654,3.714 -0.982,5.571 0.105,0.017 0.213,0.035 0.318,0.052 m -2.369,9.894 c 0.717,0.228 1.422,0.496 2.145,0.704 0.324,0.093 0.898,0.452 0.925,-0.139 0.022,-0.489 0.307,-1.314 -0.545,-1.53 -0.728,-0.187 -1.486,-0.268 -2.23,-0.394 -0.541,-0.104 -0.453,0.39 -0.609,0.648 -0.225,0.373 -0.075,0.587 0.314,0.711 m 11.808,-100.909 c 0,1.717 0.27,5.355 0.27,7.139 0.813,-1.775 1.08,-3.592 1.692,-5.408 0.281,-0.836 -0.616,-9.688 -0.637,-10.054 -0.055,-0.905 1.084,-1.25 1.084,-1.25 l 0.666,7.916 c 1,-2.508 2.781,-10.352 3.083,-10.416 0.956,-0.205 1.206,0.37 1.206,0.37 -0.5,1.501 -3.377,9.76 -3.938,12.548 -0.247,1.228 -0.13,0.704 -0.044,2.688 0.246,5.66 0.937,11.543 1.16,17.325 0.236,6.142 0.113,12.297 -0.034,18.445 -0.015,0.698 0.229,0.955 0.792,1.182 1.138,0.459 2.273,0.935 3.382,1.462 9.455,4.497 18.919,8.974 28.156,13.915 4.64,2.484 9.072,5.247 12.654,9.182 1.123,1.234 2.197,2.514 2.896,4.04 1.879,4.1 1.856,7.122 -1.931,11.522 -2.203,2.554 -4.994,4.474 -7.94,6.146 -1.336,0.759 -2.908,1.156 -3.92,2.434 -2.617,3.306 -5.89,5.863 -9.459,8.026 -8.366,5.07 -17.51,7.38 -27.258,7.405 -0.524,0.002 -0.975,-0.021 -1.131,0.654 -0.127,0.549 -0.547,0.864 -1.131,0.805 -0.565,-0.056 -0.91,-0.41 -1.014,-0.973 -0.043,-0.241 0.006,-0.503 -0.373,-0.535 -1.412,-0.119 -2.822,-0.259 -4.318,-0.4 1.179,2.01 1.179,2.102 0.074,3.037 h -0.434 c -0.591,-0.472 -1.195,-0.929 -1.767,-1.421 -0.311,-0.266 -0.584,-0.678 -0.506,-1.043 0.23,-1.084 -0.457,-1.231 -1.225,-1.413 -0.732,-0.174 -1.463,-0.385 -2.172,-0.643 -0.609,-0.222 -1.074,-0.302 -1.666,0.196 -0.75,0.631 -1.732,0.108 -1.919,-0.898 -0.217,-1.166 -0.217,-1.166 -1.182,-2.069 -0.045,0.045 -0.125,0.086 -0.133,0.138 -0.094,0.603 -0.072,1.364 -0.976,1.237 -0.872,-0.123 -0.719,-0.841 -0.645,-1.46 0.014,-0.108 -0.002,-0.23 0.047,-0.321 0.933,-1.812 0.172,-2.932 -1.258,-4.189 -2.404,-2.117 -2.674,-4.346 -1.32,-7.352 0.189,-0.42 0.035,-0.68 -0.094,-1 -0.697,-1.742 -0.404,-2.72 1.107,-3.84 0.463,-0.342 0.946,-0.699 1.293,-1.145 0.83,-1.069 1.817,-1.857 3.153,-2.165 0.849,-0.196 1.127,-0.764 1.314,-1.606 2.143,-9.547 4.319,-19.088 6.551,-28.615 0.238,-1.014 -0.141,-1.15 -0.93,-1.262 -3.927,-0.558 -7.851,-1.15 -11.781,-1.709 -0.826,-0.118 -1.434,-0.404 -1.273,-1.36 0.13,-0.769 0.902,-1.032 1.841,-0.744 3.971,1.22 8.065,1.862 12.141,2.593 0.268,0.048 0.514,0.168 0.545,-0.235 0.021,-0.286 0.289,-0.637 -0.211,-0.808 -1.457,-0.502 -2.598,-1.679 -4.309,-1.723 -1.23,-0.033 -2.392,-0.745 -3.65,-0.943 -0.686,-0.108 -1.328,-0.344 -1.881,0.324 -0.234,0.283 -0.588,0.262 -0.881,0.026 -0.271,-0.218 -0.494,-0.536 -0.271,-0.845 0.699,-0.974 -0.135,-0.974 -0.688,-1.106 -0.982,-0.234 -1.976,-0.411 -2.963,-0.63 -1.246,-0.279 -2.255,-0.924 -2.98,-1.988 v -0.869 c 0.603,-0.838 1.428,-1.127 2.441,-1.073 2.371,0.125 4.774,0.023 7.002,1.069 0.516,0.242 1.596,0.049 1.27,1.004 -0.289,0.85 -1.086,0.226 -1.58,0.007 -2,-0.885 -3.987,-0.618 -6.11,-0.138 1.176,0.672 1.69,0.855 2.09,0.541 0.481,-0.381 0.893,-0.305 1.403,-0.13 3.613,1.233 7.476,1.195 11.14,2.171 0.205,0.055 0.533,0.166 0.6,-0.235 0.058,-0.347 -0.176,-0.417 -0.445,-0.468 -0.604,-0.112 -1.204,-0.245 -1.807,-0.355 -0.598,-0.108 -1.104,-0.35 -0.904,-1.053 0.171,-0.6 0.671,-0.674 1.234,-0.473 0.269,0.098 0.559,0.158 0.844,0.193 0.312,0.039 0.728,0.238 0.925,-0.019 0.247,-0.324 -0.027,-0.752 -0.082,-1.131 -0.044,-0.316 -0.365,-0.317 -0.587,-0.405 -1.379,-0.552 -2.791,-1.029 -4.258,-1.249 -3.391,-0.513 -6.756,-1.147 -10.094,-1.939 -0.582,-0.139 -0.988,-0.371 -0.865,-0.993 0.121,-0.609 0.558,-0.738 1.162,-0.58 3.312,0.871 6.666,1.566 10.043,2.14 1.449,0.247 2.791,0.869 4.318,1.234 -0.797,-5.206 -1.342,-10.345 -2.404,-15.374 -2.076,-9.828 -4.349,-19.726 -4.223,-29.784 0.041,-3.371 0.093,-2.428 -0.333,-5.703 -0.124,-0.957 1.805,-1.535 2.101,-0.85 0.312,0.726 0.407,1.716 0.354,2.308 -0.109,1.218 0.046,6.822 0.042,8.074 -0.023,8.224 -0.373,6.761 1.153,14.794 0.867,4.577 2.134,9.073 2.793,13.693 0.336,2.356 0.732,4.702 1.101,7.054 0.237,-4.143 -0.017,-8.26 -0.166,-12.379 -0.199,-5.535 -0.623,-11.065 -0.681,-16.6 -0.09,-8.67 -1.553,-16.522 -1.516,-17.506 0.014,-0.346 1.826,-0.399 2.044,-0.471 0.276,-0.092 1.923,-0.75 1.923,-0.75 0,0 -0.242,4.094 -0.294,5.128 -0.087,1.728 0.044,1.946 0.04,7.171 -0.008,9.025 0.943,13.64 2.357,22.551 0.162,1.018 0.135,2.088 0.709,3.203 0.399,-1.805 0.977,-3.385 1.008,-5.121 0.104,-5.683 -0.979,-11.502 -0.826,-17.183 0.135,-5.102 0.9,-9.906 1.426,-15.16 0.062,-0.626 2.968,-0.736 2.946,-0.106 l -1.911,11.515"
             style="fill:#ffffff;fill-opacity:1;fill-rule:nonzero;stroke:none"
             id="path3980"
             inkscape:connector-curvature="0" />
        </g>
      </g>
    </g>
  </g>
</svg>
